<svg width="20" height="24" viewBox="0 0 20 24" fill="none" xmlns="http://www.w3.org/2000/svg">
<rect width="20" height="24" rx="4" fill="#D9D9D9"/>
<rect width="20" height="24" rx="4" fill="url(#paint0_linear_1852_7)"/>
<path d="M7.59174 16.3335C7.12254 15.8643 7.12254 15.1036 7.59174 14.6344L13.6351 8.59103C14.1043 8.12184 14.865 8.12184 15.3342 8.59103V8.59103C15.8034 9.06023 15.8034 9.82094 15.3342 10.2901L9.29083 16.3335C8.82164 16.8027 8.06093 16.8027 7.59174 16.3335V16.3335Z" fill="#D9D9D9"/>
<path d="M7.59174 16.3335C7.12254 15.8643 7.12254 15.1036 7.59174 14.6344L13.6351 8.59103C14.1043 8.12184 14.865 8.12184 15.3342 8.59103V8.59103C15.8034 9.06023 15.8034 9.82094 15.3342 10.2901L9.29083 16.3335C8.82164 16.8027 8.06093 16.8027 7.59174 16.3335V16.3335Z" fill="url(#paint1_linear_1852_7)"/>
<path d="M9.29096 16.3335C8.82176 16.8027 8.06105 16.8027 7.59186 16.3335L4.6665 13.4081C4.19731 12.9389 4.19731 12.1782 4.6665 11.709V11.709C5.1357 11.2399 5.89641 11.2399 6.3656 11.709L9.29096 14.6344C9.76015 15.1036 9.76015 15.8643 9.29096 16.3335V16.3335Z" fill="#D9D9D9"/>
<path d="M9.29096 16.3335C8.82176 16.8027 8.06105 16.8027 7.59186 16.3335L4.6665 13.4081C4.19731 12.9389 4.19731 12.1782 4.6665 11.709V11.709C5.1357 11.2399 5.89641 11.2399 6.3656 11.709L9.29096 14.6344C9.76015 15.1036 9.76015 15.8643 9.29096 16.3335V16.3335Z" fill="url(#paint2_linear_1852_7)"/>
<path d="M9.29096 16.3335C8.82176 16.8027 8.06105 16.8027 7.59186 16.3335L4.6665 13.4081C4.19731 12.9389 4.19731 12.1782 4.6665 11.709V11.709C5.1357 11.2399 5.89641 11.2399 6.3656 11.709L9.29096 14.6344C9.76015 15.1036 9.76015 15.8643 9.29096 16.3335V16.3335Z" fill="url(#paint3_linear_1852_7)"/>
<defs>
<linearGradient id="paint0_linear_1852_7" x1="1.62791" y1="-4.89345e-07" x2="19.963" y2="17.0286" gradientUnits="userSpaceOnUse">
<stop stop-color="#8AD8A4"/>
<stop offset="0.449767" stop-color="#5EBE74"/>
<stop offset="1" stop-color="#3A944F"/>
</linearGradient>
<linearGradient id="paint1_linear_1852_7" x1="15.328" y1="8.44638" x2="7.62179" y2="16.2185" gradientUnits="userSpaceOnUse">
<stop stop-color="#D2FFCA"/>
<stop offset="1" stop-color="#A4D1AF"/>
</linearGradient>
<linearGradient id="paint2_linear_1852_7" x1="9.20271" y1="16.4381" x2="4.52627" y2="12.0471" gradientUnits="userSpaceOnUse">
<stop stop-color="#FAD8A7"/>
<stop offset="1" stop-color="#FFE8CA"/>
</linearGradient>
<linearGradient id="paint3_linear_1852_7" x1="4.54974" y1="11.7431" x2="9.18403" y2="16.3539" gradientUnits="userSpaceOnUse">
<stop stop-color="#D2FFCA"/>
<stop offset="1" stop-color="#A4D1AF"/>
</linearGradient>
</defs>
</svg>
